# xmcd
#
# Track frame offsets:
#	150
#	19010
#	34760
#	55900
#	74042
#	91817
#	106770
#	125052
#	144762
#	160150
#	177430
#	194302
#	211222
#	233362
#
# Disc length: 3342 seconds
#
# Revision: 8
# Processed by: cddbd v1.5.2PL0 Copyright (c) Steve Scherf et al.
# Submitted via: EZCDAudioConverter 8.2.2.1
#
DISCID=b70d0c0e
DTITLE=LEANDRO and LEONARDO - ESSAS MULHERES [CD 063018755-2) CHANTECLER
DYEAR=1997
DGENRE=SERTANEJO
TTITLE0=ESSAS MULHERES (ESAS MUJERES) (BY GILMAR SINISTRO)
TTITLE1=CERVEJA (BY GILMAR SINISTRO)
TTITLE2=FOI UM TIRO EM MINHA VIDA (BY GILMAR SINISTRO)
TTITLE3=RUMO Á GOIÂNIA (BY GILMAR SINISTRO)
TTITLE4=SE FOR PRECISO CHORAR (BY GILMAR SINISTRO)
TTITLE5=ANARRIÊ (BY GILMAR SINISTRO)
TTITLE6=O AMOR QUE A GENTE FAZ (BY GILMAR SINISTRO)
TTITLE7=PEDINDO AMOR (BY GILMAR SINISTRO)
TTITLE8=SEGURA PEÃO (BY GILMAR SINISTRO)
TTITLE9=HISTÓRIA DE UM AMOR (HISTORIA DE UN AMOR) (BY GILMAR SINISTRO)
TTITLE10=CAMA FRIA (BY GILMAR SINISTRO)
TTITLE11=PODE SER VOCÊ MEU GRANDE AMOR (BY GILMAR SINISTRO)
TTITLE12=ONDE FOI QUE EU ERREI (BY GILMAR SINISTRO)
TTITLE13=SALVA MINHA VIDA (BY GILMAR SINISTRO)
EXTD=
EXTT0=
EXTT1=
EXTT2=
EXTT3=
EXTT4=
EXTT5=
EXTT6=
EXTT7=
EXTT8=
EXTT9=
EXTT10=
EXTT11=
EXTT12=
EXTT13=
PLAYORDER=
